Filename:
Dinner For Schmucks PPVRip 7SPEED
 
http://www.imdb.com/title/tt0427152/

Video
ID                               : 0
Format                           : MPEG-4 Visual
Format settings, BVOP            : Yes
Format settings, QPel            : No
Format settings, GMC             : No warppoints
Format settings, Matrix          : Default (H.263)
Codec ID                         : DX50
Codec ID/Hint                    : DivX 5
Duration                         : 1h 53mn
Bit rate                         : 724 Kbps
Width                            : 720 pixels
Height                           : 480 pixels
Display aspect ratio             : 4:3
Frame rate                       : 29.970 fps
Standard                         : NTSC
Color space                      : YUV
Chroma subsampling               : 4:2:0
Bit depth                        : 8 bits
Scan type                        : Progressive
Bits/(Pixel*Frame)               : 0.070
Stream size                      : 587 MiB (84%)
Writing library                  : DivX 2151n

Audio
ID                               : 1
Format                           : MPEG Audio
Format version                   : Version 1
Format profile                   : Layer 3
Codec ID                         : 55
Codec ID/Hint                    : MP3
Duration                         : 1h 53mn
Bit rate mode                    : Constant
Bit rate                         : 128 Kbps
Channel(s)                       : 2 channels
Sampling rate                    : 48.0 KHz
Stream size                      : 104 MiB (15%)
Alignment                        : Aligned on interleaves
Interleave, duration             : 33 ms (1.00 video frame)

Thanks to IFLIX for the source.
